# xmcd
#
# Track frame offsets:
#	150
#	13427
#	26125
#	38715
#	49585
#	59792
#	73565
#	85565
#	97000
#	111562
#	122800
#	132885
#	147407
#	159985
#	172832
#	186975
#	202817
#	217040
#	231075
#	242615
#
# Disc length: 3355 seconds
#
# Revision: 2
# Processed by: cddbd v1.5.2PL0 Copyright (c) Steve Scherf et al.
# Submitted via: audiograbber 1.83.01
#
DISCID=220d1914
DTITLE=Charley Pride - The Silver Anniversary Album
DYEAR=1900
DGENRE=Country
TTITLE0=Kiss An Angel Good Morning
TTITLE1=Crystal Chandeliers
TTITLE2=Mountain Of Love
TTITLE3=Mississippi Cotton Pickin' Delta Town
TTITLE4=Before The Next Teardrop Falls
TTITLE5=All I Have To Offer You Is Me
TTITLE6=Shutters And Boards
TTITLE7=Six Days On The Road
TTITLE8=Shouldn't It Be Easier Than This
TTITLE9=Help Me Make It Thorugh The Night
TTITLE10=Is Anybody Goin' To San Antone
TTITLE11=Kaw Lija
TTITLE12=I'm Gonna Love Her On The Radio
TTITLE13=Blue Eyes Crying In The Rain
TTITLE14=She's Soft To Touch (But She's Hard To Hold)
TTITLE15=Me And Bobby McGee
TTITLE16=On The Other Hand
TTITLE17=Green, Green Grass Of Home
TTITLE18=I Can't Help It If I'm Still In Love With You
TTITLE19=Honky Tonk Blues
EXTD=
EXTT0=
EXTT1=
EXTT2=
EXTT3=
EXTT4=
EXTT5=
EXTT6=
EXTT7=
EXTT8=
EXTT9=
EXTT10=
EXTT11=
EXTT12=
EXTT13=
EXTT14=
EXTT15=
EXTT16=
EXTT17=
EXTT18=
EXTT19=
PLAYORDER=
